<?xml version="1.0" encoding="iso-8859-1"?>
<!-- Generator: Adobe Illustrator 22.0.1, SVG Export Plug-In . SVG Version: 6.00 Build 0)  -->
<svg version="1.1" xmlns="http://www.w3.org/2000/svg" xmlns:xlink="http://www.w3.org/1999/xlink" x="0px" y="0px"
	 viewBox="0 0 512 512" style="enable-background:new 0 0 512 512;" xml:space="preserve">
<g id="BULINE">
	<path id="XMLID_1513_" style="fill:#487FDE;" d="M512,256c0,70.692-28.654,134.692-74.981,181.019S326.692,512,256,512
		s-134.692-28.654-181.019-74.981S0,326.692,0,256S28.654,121.308,74.981,74.981S185.308,0,256,0s134.692,28.654,181.019,74.981
		S512,185.308,512,256z"/>
</g>
<g id="Icons">
	<g id="XMLID_1276_">
		<path id="XMLID_1584_" style="fill:#4070B5;" d="M512,256c0,47.38-12.872,91.755-35.311,129.816s-54.444,69.809-92.709,91.934
			c-2.48,1.44-4.987,2.837-7.521,4.191s-5.094,2.664-7.679,3.929c-9.735,4.79-19.82,8.977-30.205,12.515s-21.07,6.425-32.005,8.615
			c-2.8,0.565-5.618,1.082-8.451,1.551s-5.684,0.889-8.549,1.259c-5.49,0.725-11.038,1.272-16.635,1.639
			C267.338,511.815,261.69,512,256,512c-6.285,0-12.515-0.228-18.684-0.674S225.04,510.215,219,509.34
			c-3.61-0.52-7.195-1.117-10.753-1.79s-7.088-1.42-10.588-2.24c-4.005-0.93-7.972-1.955-11.901-3.073s-7.819-2.328-11.669-3.628
			c-5.925-2-11.75-4.21-17.469-6.621s-11.331-5.024-16.831-7.829c-3.815-1.945-7.575-3.985-11.276-6.115s-7.344-4.35-10.924-6.655
			c-0.005-0.005-0.01-0.008-0.015-0.01s-0.01-0.005-0.015-0.01c-27.91-17.975-52.1-41.23-71.159-68.353S13.415,344.905,6.03,311.46
			c4.095-21.26,10.742-46.047,21.537-70.614s25.738-48.911,46.423-69.286c7.185-7.075,16.855-8.325,24.936-5.294
			S113.5,176.61,114.33,186.66c0.635,7.69,0.49,17.178-0.838,28.883s-3.837,25.627-7.932,42.188c0,0-4.988,30.23-3.385,52.596
			s9.795,36.869,36.155,5.414c0,0,1.585-2.755,4.626-7.474s7.539-11.401,13.364-19.256c4.745-6.4,10.367-13.578,16.801-21.108
			S186.8,252.49,194.79,244.68l0.005-0.005l0.005-0.005c1.005-0.985,2.022-1.967,3.052-2.947s2.072-1.957,3.127-2.932
			c1.975-1.83,3.99-3.65,6.044-5.454s4.146-3.591,6.276-5.356c5.015-4.155,10.245-8.193,15.676-12.039s11.064-7.501,16.884-10.891
			c2.97-1.73,5.99-3.39,9.058-4.97s6.182-3.08,9.343-4.49c4.76-2.135,9.622-4.067,14.585-5.764s10.025-3.156,15.185-4.346
			c1.24-0.295,2.487-0.57,3.741-0.826s2.514-0.494,3.779-0.714c3.98-0.71,8.012-1.255,12.096-1.622s8.219-0.557,12.404-0.557
			c1.5,0,3.008,0.025,4.521,0.076s3.034,0.129,4.559,0.234c0,0,0.82-0.003,2.235,0.082s3.425,0.257,5.805,0.607
			c0.055,0.01,0.11,0.018,0.165,0.026s0.11,0.019,0.165,0.034c0.595,0.085,1.215,0.185,1.854,0.3s1.296,0.245,1.966,0.39
			c0.945,0.195,1.917,0.42,2.91,0.677s2.005,0.548,3.03,0.873c0.82,0.26,1.647,0.542,2.477,0.849s1.663,0.636,2.492,0.991
			c9.455,4.075,18.565,11.59,20.135,25.445s-4.4,34.05-25.105,63.485c-0.405,0.58-0.818,1.162-1.236,1.749s-0.844,1.176-1.274,1.771
			c-4.04,5.56-6.053,12.157-5.966,18.695s2.271,13.015,6.626,18.335c0.29,0.355,0.59,0.708,0.899,1.054s0.626,0.686,0.951,1.016
			c4.485,4.61,10.6,7.943,18.891,7.913S390.91,322.94,404.1,314.1c6.955-4.655,13.38-10.015,19.225-15.955
			s11.11-12.46,15.745-19.435c6.91-10.4,17.75-24.948,30.404-35.634s27.121-17.511,41.286-12.466c0.41,4.175,0.72,8.38,0.928,12.613
			S512,251.715,512,256z"/>
		<g id="XMLID_1277_">
			<path id="XMLID_1332_" style="fill:#1B305C;" d="M255.8,31.727h-1.005h-1.005c-26.914,0-51.28,10.909-68.918,28.547
				s-28.547,42.004-28.547,68.918v120.934V371.06h98.47h98.47V250.126V129.192c0-26.914-10.909-51.28-28.547-68.918
				C307.08,42.636,282.714,31.727,255.8,31.727z"/>
			<path id="XMLID_1330_" style="fill:#172843;" d="M277.124,34.077c-21.785,4.86-40.82,17.015-54.409,33.766
				c-13.589,16.751-21.731,38.099-21.731,61.344v120.935v120.935h-22.33h-22.33V250.122V129.187
				c0-26.91,10.908-51.275,28.544-68.912s42.001-28.548,68.916-28.548h1.005h1.005c3.665,0,7.283,0.202,10.841,0.597
				C270.194,32.719,273.694,33.307,277.124,34.077z"/>
			<g id="XMLID_1327_">
				<path id="XMLID_1329_" style="fill:#FFFFFF;" d="M309.907,59.539c0-4.755,0.337-9.38,0.911-13.81
					c0.574-4.43,1.385-8.665,2.334-12.641c1.552-6.472,3.471-12.258,5.334-17.086c1.863-4.828,3.671-8.697,5.001-11.337
					c0.536-1.06,1.332-1.59,2.127-1.59c0.795,0,1.591,0.53,2.127,1.59c1.362,2.703,3.226,6.698,5.137,11.691
					c1.911,4.993,3.868,10.986,5.417,17.686c0.892,3.854,1.649,7.943,2.182,12.212c0.533,4.268,0.844,8.716,0.844,13.285
					c0,16.247-1.758,30.957-4.6,41.605s-6.768,17.234-11.103,17.234c-4.339,0-8.266-6.586-11.109-17.234
					C311.666,90.496,309.907,75.786,309.907,59.539z"/>
				<path id="XMLID_1328_" style="fill:#6F4232;" d="M313.152,33.089c1.552-6.472,3.471-12.258,5.334-17.086
					c1.863-4.828,3.671-8.697,5.001-11.337c0.536-1.06,1.332-1.59,2.127-1.59c0.795,0,1.591,0.53,2.127,1.59
					c1.362,2.703,3.226,6.698,5.137,11.691c1.911,4.993,3.868,10.986,5.417,17.686l-6.338,4.707l-6.338,4.707l-6.233-5.184
					L313.152,33.089z"/>
			</g>
			<path id="XMLID_1520_" style="fill:#E17265;" d="M385.93,475.96c-0.325,0.3-0.65,0.603-0.975,0.903s-0.65,0.597-0.975,0.888
				c-2.48,1.44-4.987,2.837-7.521,4.191s-5.094,2.664-7.679,3.929c-9.735,4.79-19.82,8.977-30.205,12.515s-21.07,6.425-32.005,8.615
				c-2.8,0.565-5.618,1.082-8.451,1.551s-5.684,0.889-8.549,1.259c-5.49,0.725-11.038,1.272-16.635,1.639
				C267.338,511.815,261.69,512,256,512c-6.285,0-12.515-0.228-18.684-0.674S225.04,510.215,219,509.34
				c-3.61-0.52-7.195-1.117-10.753-1.79s-7.088-1.42-10.588-2.24c-4.005-0.93-7.972-1.955-11.901-3.073s-7.819-2.328-11.669-3.628
				c-5.925-2-11.75-4.21-17.469-6.621s-11.331-5.024-16.831-7.829c-3.815-1.945-7.575-3.985-11.276-6.115s-7.344-4.35-10.924-6.655
				c-0.005-0.005-0.01-0.008-0.015-0.01s-0.01-0.005-0.015-0.01l4.34-29.96l4.34-29.96c0.15-1.025,0.31-2.045,0.483-3.06
				s0.357-2.025,0.558-3.03c0.2-1.01,0.412-2.015,0.636-3.014s0.459-1.991,0.704-2.976c0,0,0,0,0-0.001s0-0.004,0-0.009
				c0.105-0.395,0.208-0.79,0.311-1.184s0.209-0.786,0.319-1.176c0.245-0.915,0.503-1.828,0.771-2.735s0.549-1.81,0.839-2.705
				c0.1-0.32,0.205-0.64,0.313-0.959s0.217-0.636,0.327-0.951c0.33-0.955,0.67-1.905,1.02-2.85s0.71-1.885,1.08-2.82
				c0.9-2.245,1.865-4.455,2.896-6.629s2.129-4.311,3.294-6.411c0.92-1.69,1.885-3.355,2.891-4.994s2.054-3.251,3.139-4.836
				c1.105-1.62,2.25-3.21,3.434-4.769s2.406-3.086,3.666-4.581c0.21-0.25,0.423-0.5,0.636-0.75s0.429-0.5,0.644-0.75
				c0.345-0.4,0.695-0.795,1.049-1.188s0.711-0.783,1.071-1.173c4.03-4.38,8.392-8.445,13.052-12.154s9.617-7.061,14.837-10.016
				v-0.005v-0.005c0.07-0.035,0.14-0.075,0.211-0.116s0.144-0.084,0.219-0.124c2.09-1.17,4.223-2.275,6.394-3.314
				s4.381-2.011,6.626-2.916c0.08-0.03,0.158-0.062,0.235-0.095s0.155-0.065,0.235-0.095c0.235-0.095,0.47-0.188,0.706-0.279
				s0.474-0.181,0.714-0.271c0.155-0.06,0.31-0.12,0.465-0.18s0.31-0.12,0.465-0.18c0.08-0.03,0.163-0.06,0.246-0.09
				s0.169-0.06,0.254-0.09c0.31-0.115,0.62-0.227,0.931-0.339s0.624-0.221,0.939-0.331l2.14-0.74l2.14-0.74l0.275-0.095l0.275-0.095
				h0.005h0.005c0,0,0.003,0,0.005-0.001s0.005-0.004,0.005-0.009l2.125-0.73l2.125-0.73l2.59-0.9l2.59-0.9l0.635-0.22l0.635-0.22
				l0.3-0.105l0.3-0.105l3.625-1.255l3.625-1.255c0,0,0.003,0,0.006-0.001s0.009-0.004,0.014-0.009
				c0.84-0.29,1.542-0.823,2.035-1.504s0.775-1.511,0.775-2.396v-19.78v-19.78h25.25h25.25v20.11v20.11
				c0,0.81,0.237,1.58,0.659,2.231s1.026,1.184,1.761,1.519l3.785,1.715l3.785,1.715l0.61,0.275l0.61,0.275l1.65,0.75l1.65,0.75
				l3.035,1.025l3.035,1.025c0.105,0.035,0.21,0.07,0.315,0.106c0.105,0.036,0.21,0.074,0.315,0.114
				c0.125,0.04,0.247,0.083,0.369,0.126s0.241,0.089,0.361,0.134c0.415,0.145,0.83,0.293,1.244,0.443
				c0.414,0.15,0.826,0.302,1.236,0.457c0.025,0.005,0.048,0.013,0.069,0.021s0.041,0.019,0.061,0.029
				c0.365,0.135,0.728,0.273,1.089,0.413s0.721,0.283,1.081,0.428c0.045,0.02,0.09,0.038,0.135,0.055s0.09,0.035,0.135,0.055
				c0.215,0.085,0.43,0.173,0.645,0.261s0.43,0.179,0.645,0.269c0.625,0.265,1.25,0.535,1.874,0.811s1.246,0.559,1.866,0.849
				c0.31,0.145,0.617,0.29,0.924,0.436s0.611,0.294,0.916,0.444c0.515,0.245,1.028,0.495,1.538,0.751s1.018,0.519,1.523,0.789
				c0.195,0.1,0.388,0.2,0.579,0.3s0.381,0.2,0.571,0.3c0.795,0.43,1.585,0.87,2.37,1.319s1.565,0.906,2.34,1.371
				c1.85,1.12,3.665,2.287,5.443,3.502s3.518,2.478,5.217,3.788c0.425,0.325,0.848,0.655,1.268,0.987s0.837,0.668,1.253,1.003
				c3.275,2.665,6.395,5.508,9.351,8.512s5.749,6.172,8.369,9.488c0.49,0.61,0.972,1.227,1.447,1.851s0.942,1.254,1.402,1.889
				c1.58,2.18,3.093,4.418,4.53,6.709s2.8,4.636,4.08,7.031c0.73,1.365,1.435,2.745,2.113,4.14s1.328,2.805,1.948,4.23
				c2.27,5.16,4.182,10.51,5.714,16.016s2.681,11.169,3.426,16.954l4.005,31.175L385.93,475.96z"/>
			<path id="XMLID_1399_" style="fill:#CC675E;" d="M256.77,265.73v19.78v19.78c0,0.885-0.283,1.715-0.775,2.396
				s-1.195,1.214-2.035,1.504c-0.005,0.005-0.01,0.008-0.014,0.009s-0.006,0.001-0.006,0.001l-3.625,1.255l-3.625,1.255l-0.3,0.105
				l-0.3,0.105l-0.635,0.22l-0.635,0.22l-2.59,0.9l-2.59,0.9l-2.125,0.73l-2.125,0.73c0,0.005-0.003,0.007-0.005,0.009
				s-0.005,0.001-0.005,0.001h-0.005h-0.005l-0.275,0.095l-0.275,0.095l-2.14,0.74l-2.14,0.74c-1.98,0.69-3.932,1.43-5.856,2.22
				s-3.819,1.63-5.684,2.52c-0.315,0.145-0.628,0.292-0.939,0.444s-0.621,0.306-0.931,0.466c-0.81,0.4-1.615,0.813-2.415,1.235
				s-1.595,0.855-2.385,1.295c-0.075,0.04-0.148,0.083-0.219,0.124s-0.141,0.081-0.211,0.116v0.005v0.005
				c-0.81,0.455-1.613,0.923-2.408,1.4s-1.583,0.965-2.362,1.46c-1.05,0.66-2.087,1.338-3.113,2.034s-2.038,1.411-3.038,2.146
				c-0.56,0.405-1.117,0.818-1.671,1.236s-1.104,0.844-1.649,1.274c-2.86,2.24-5.61,4.615-8.241,7.115s-5.144,5.125-7.529,7.865
				c-0.215,0.25-0.43,0.5-0.644,0.75s-0.426,0.5-0.636,0.75c-1.26,1.495-2.482,3.023-3.666,4.581s-2.329,3.149-3.434,4.769
				c-1.085,1.585-2.132,3.198-3.139,4.836s-1.971,3.304-2.891,4.994c-0.01,0.02-0.02,0.04-0.031,0.06s-0.024,0.04-0.039,0.06
				c-1.15,2.08-2.235,4.197-3.255,6.351s-1.975,4.344-2.865,6.569c-0.37,0.935-0.73,1.875-1.08,2.82s-0.69,1.895-1.02,2.85
				c-0.11,0.315-0.22,0.633-0.327,0.951s-0.212,0.639-0.312,0.959c-0.29,0.895-0.57,1.797-0.839,2.705s-0.526,1.82-0.771,2.735
				c-0.11,0.39-0.215,0.783-0.319,1.176s-0.206,0.789-0.311,1.184c0,0.005,0,0.008,0,0.009s0,0.001,0,0.001
				c-0.245,0.985-0.48,1.977-0.704,2.976s-0.436,2.004-0.636,3.014c-0.2,1.005-0.385,2.015-0.557,3.03s-0.333,2.035-0.483,3.06
				l-4.625,31.925L144.68,475.3c0.995,0.95,2,1.885,3.013,2.807s2.033,1.832,3.058,2.732c2.69,2.36,5.43,4.648,8.219,6.859
				s5.626,4.346,8.511,6.401c1.09,0.775,2.185,1.54,3.286,2.292s2.209,1.492,3.324,2.217c-5.925-2-11.75-4.21-17.469-6.621
				s-11.331-5.024-16.831-7.829c-3.815-1.945-7.575-3.985-11.276-6.115s-7.344-4.35-10.924-6.655l4.34-29.97l4.34-29.97
				c0.15-1.025,0.31-2.045,0.482-3.06s0.357-2.025,0.558-3.03c0.2-1.01,0.412-2.015,0.636-3.014s0.459-1.991,0.704-2.976
				c0,0,0,0,0-0.001s0-0.004,0-0.009c0.105-0.395,0.207-0.79,0.311-1.184s0.209-0.786,0.319-1.176
				c0.245-0.915,0.503-1.828,0.771-2.735s0.549-1.81,0.839-2.705c0.1-0.32,0.205-0.64,0.313-0.959s0.217-0.636,0.327-0.951
				c0.33-0.955,0.67-1.905,1.02-2.85s0.71-1.885,1.08-2.82c0.895-2.235,1.855-4.435,2.881-6.599s2.119-4.291,3.279-6.381
				c0.005-0.01,0.01-0.02,0.015-0.03s0.01-0.02,0.015-0.03c0.92-1.69,1.885-3.355,2.891-4.994s2.054-3.251,3.139-4.836
				c1.105-1.62,2.25-3.21,3.434-4.769s2.406-3.086,3.666-4.581c0.21-0.25,0.423-0.5,0.636-0.75s0.429-0.5,0.644-0.75
				c0.345-0.395,0.69-0.785,1.037-1.173s0.698-0.773,1.053-1.158c4.035-4.39,8.4-8.462,13.064-12.176s9.626-7.069,14.856-10.024
				v-0.005v-0.005c0.07-0.035,0.14-0.075,0.211-0.116s0.144-0.084,0.219-0.124c2.085-1.17,4.213-2.272,6.379-3.309
				s4.371-2.006,6.611-2.911c0.085-0.035,0.17-0.07,0.254-0.104s0.166-0.066,0.246-0.096c0.465-0.185,0.933-0.368,1.403-0.548
				s0.942-0.357,1.417-0.533c0.315-0.115,0.63-0.23,0.946-0.344s0.634-0.226,0.954-0.336l2.125-0.735l2.125-0.735l0.015-0.005
				l0.015-0.005l0.275-0.095l0.275-0.095h0.005h0.005c0,0,0.003,0,0.005-0.001s0.005-0.004,0.005-0.009l2.125-0.73l2.125-0.73
				l2.575-0.895l2.575-0.895l0.015-0.005l0.015-0.005l0.635-0.22l0.635-0.22l0.285-0.1l0.285-0.1l0.015-0.005l0.015-0.005
				l3.625-1.255l3.625-1.255c0,0,0.003,0,0.006-0.001s0.009-0.004,0.014-0.009c0.84-0.29,1.542-0.823,2.035-1.504
				s0.775-1.511,0.775-2.396v-19.78v-19.78h13.83H256.77z"/>
			<path id="XMLID_1324_" style="fill:#E17265;" d="M168.207,126.393c-0.037,0.73-0.066,1.462-0.085,2.196
				c-0.02,0.734-0.03,1.471-0.03,2.211v29.827v29.827c0,22.252,8.854,36.941,20.935,48.896c12.081,11.955,27.39,21.176,40.3,32.49
				c7.686,6.736,17.077,10.104,26.468,10.104c9.391,0,18.782-3.368,26.468-10.104c12.91-11.315,28.219-20.535,40.3-32.49
				s20.935-26.644,20.935-48.896v-29.827V130.8c0-0.739-0.011-1.476-0.03-2.211c-0.02-0.734-0.049-1.466-0.085-2.196h-87.587
				H168.207z"/>
			<path id="XMLID_1323_" style="fill:#CC675E;" d="M207.424,140.137v29.83v29.83c0,21.91,8.587,36.488,20.387,48.344
				c11.8,11.856,26.812,20.991,39.663,32.016c-6.45,2.01-13.26,2.32-19.821,0.932s-12.874-4.473-18.329-9.253
				c-12.91-11.31-28.217-20.53-40.297-32.485c-12.08-11.955-20.932-26.645-20.932-48.895v-29.83v-29.83
				c0-0.74,0.01-1.475,0.029-2.208c0.019-0.733,0.046-1.463,0.081-2.193h87.59h87.59c0.035,0.73,0.062,1.46,0.081,2.193
				c0.019,0.732,0.029,1.467,0.029,2.208v2.47v2.47h-67.975h-67.975c-0.04,0.725-0.07,1.455-0.09,2.189
				C207.434,138.659,207.424,139.397,207.424,140.137z"/>
			<path id="XMLID_1322_" style="fill:#CC675E;" d="M150.208,177.88c0,4.847,1.965,9.235,5.141,12.411
				c3.176,3.176,7.564,5.141,12.411,5.141c4.847,0,9.235-1.965,12.411-5.141c3.176-3.176,5.141-7.564,5.141-12.411
				s-1.965-9.235-5.141-12.411s-7.564-5.141-12.411-5.141c-4.847,0-9.235,1.965-12.411,5.141
				C152.172,168.646,150.208,173.033,150.208,177.88z"/>
			<path id="XMLID_1321_" style="fill:#E17265;" d="M325.614,177.88c0,4.847,1.965,9.235,5.141,12.411
				c3.176,3.176,7.564,5.141,12.411,5.141s9.235-1.965,12.411-5.141c3.176-3.176,5.141-7.564,5.141-12.411
				s-1.965-9.235-5.141-12.411c-3.176-3.176-7.564-5.141-12.411-5.141s-9.235,1.965-12.411,5.141
				C327.579,168.646,325.614,173.033,325.614,177.88z"/>
			<path id="XMLID_1320_" style="fill:#172843;" d="M219.002,175.764c0,2.915-0.821,5.554-2.148,7.464
				c-1.327,1.91-3.16,3.092-5.185,3.092c-2.025,0-3.858-1.181-5.185-3.092c-1.327-1.91-2.148-4.549-2.148-7.464
				c0-2.915,0.821-5.554,2.148-7.464c1.327-1.91,3.16-3.092,5.185-3.092c2.025,0,3.858,1.181,5.185,3.092
				C218.181,170.21,219.002,172.849,219.002,175.764z"/>
			<path id="XMLID_1319_" style="fill:#172843;" d="M304.243,175.764c0,2.915-0.821,5.554-2.148,7.464
				c-1.327,1.91-3.16,3.092-5.185,3.092s-3.858-1.181-5.185-3.092c-1.327-1.91-2.148-4.549-2.148-7.464
				c0-2.915,0.821-5.554,2.148-7.464c1.327-1.91,3.16-3.092,5.185-3.092s3.858,1.181,5.185,3.092
				C303.422,170.21,304.243,172.849,304.243,175.764z"/>
			<path id="XMLID_1318_" style="fill:#BD625A;" d="M263.113,205.098h-8.318h-8.318c-1.224,0-2.332-0.496-3.134-1.298
				s-1.298-1.91-1.298-3.134v-0.402v-0.402c0-1.224,0.496-2.332,1.298-3.134c0.802-0.802,1.91-1.298,3.134-1.298h8.318h8.318
				c1.224,0,2.332,0.496,3.134,1.298c0.802,0.802,1.298,1.91,1.298,3.134v0.402v0.402c0,1.224-0.496,2.332-1.298,3.134
				S264.336,205.098,263.113,205.098z"/>
			<path id="XMLID_1317_" style="fill:#D74545;" d="M351.423,92.727h-95.961h-95.961c-2.566,0-4.89,1.04-6.572,2.722
				c-1.682,1.682-2.722,4.005-2.722,6.572v15.206v15.206c0,2.566,1.04,4.89,2.722,6.572s4.005,2.722,6.572,2.722h95.961h95.961
				c2.566,0,4.89-1.04,6.572-2.722c1.682-1.682,2.722-4.005,2.722-6.572v-15.206v-15.206c0-2.566-1.04-4.89-2.722-6.572
				C356.313,93.767,353.99,92.727,351.423,92.727z"/>
			<g id="XMLID_1312_">
				<path id="XMLID_1316_" style="fill:#E9B12D;" d="M164.431,141.727h29.698h29.698l-13.508-13.508l-13.508-13.508
					c-0.741-0.741-1.712-1.111-2.683-1.111s-1.942,0.37-2.683,1.111l-13.508,13.508L164.431,141.727z"/>
				<path id="XMLID_1314_" style="fill:#E9B12D;" d="M223.828,141.727h29.698h29.698l-13.508-13.508l-13.508-13.508
					c-0.741-0.741-1.712-1.111-2.683-1.111s-1.942,0.37-2.683,1.111l-13.508,13.508L223.828,141.727z"/>
				<path id="XMLID_1313_" style="fill:#E9B12D;" d="M310.241,114.711l-13.508,13.508l-13.508,13.508h29.698h29.698l-13.508-13.508
					l-13.508-13.508c-0.741-0.741-1.712-1.111-2.683-1.111C311.952,113.6,310.981,113.97,310.241,114.711z"/>
			</g>
			<path id="XMLID_1311_" style="fill:#A43939;" d="M360.717,129.737v1.35v1.35c0,2.565-1.043,4.888-2.726,6.569
				s-4.009,2.721-6.574,2.721h-95.96h-95.96c-2.565,0-4.887-1.04-6.569-2.721s-2.721-4.004-2.721-6.569v-15.21v-15.21
				c0-2.565,1.04-4.887,2.721-6.569s4.004-2.721,6.569-2.721h9.235h9.235v13.855v13.855c0,1.09,0.188,2.133,0.53,3.101
				s0.84,1.864,1.46,2.659c0.85,1.08,1.935,1.965,3.177,2.58s2.642,0.96,4.122,0.96h86.73H360.717z"/>
			<g id="XMLID_1306_">
				<path id="XMLID_1309_" style="fill:#CD9727;" d="M223.827,141.727h-29.7h-29.7l7.765-7.765l7.765-7.765
					c0.85,1.08,1.935,1.965,3.177,2.58s2.642,0.96,4.122,0.96h12.29h12.29l5.995,5.995L223.827,141.727z"/>
				<polygon id="XMLID_1308_" style="fill:#CD9727;" points="283.217,141.727 253.522,141.727 223.827,141.727 229.822,135.732 
					235.817,129.737 253.522,129.737 271.227,129.737 277.222,135.732 				"/>
				<polygon id="XMLID_1307_" style="fill:#CD9727;" points="342.617,141.727 312.917,141.727 283.217,141.727 289.212,135.732 
					295.207,129.737 312.917,129.737 330.627,129.737 336.622,135.732 				"/>
			</g>
			<path id="XMLID_1305_" style="fill:#5BA0F5;" d="M215.462,113.6c0,2.31,0.936,4.401,2.45,5.915
				c1.514,1.514,3.605,2.45,5.915,2.45c2.31,0,4.401-0.936,5.915-2.45c1.514-1.514,2.45-3.605,2.45-5.915s-0.936-4.401-2.45-5.915
				c-1.514-1.514-3.605-2.45-5.915-2.45c-2.31,0-4.401,0.936-5.915,2.45C216.399,109.199,215.462,111.29,215.462,113.6z"/>
			<path id="XMLID_1304_" style="fill:#528FCA;" d="M156.065,113.6c0,2.31,0.936,4.401,2.45,5.915
				c1.514,1.514,3.605,2.45,5.915,2.45c2.31,0,4.401-0.936,5.915-2.45c1.514-1.514,2.45-3.605,2.45-5.915s-0.936-4.401-2.45-5.915
				c-1.514-1.514-3.605-2.45-5.915-2.45c-2.31,0-4.401,0.936-5.915,2.45C157.002,109.199,156.065,111.29,156.065,113.6z"/>
			<path id="XMLID_1303_" style="fill:#5BA0F5;" d="M274.859,113.6c0,2.31,0.936,4.401,2.45,5.915
				c1.514,1.514,3.605,2.45,5.915,2.45c2.31,0,4.401-0.936,5.915-2.45c1.514-1.514,2.45-3.605,2.45-5.915s-0.936-4.401-2.45-5.915
				c-1.514-1.514-3.605-2.45-5.915-2.45c-2.31,0-4.401,0.936-5.915,2.45C275.796,109.199,274.859,111.29,274.859,113.6z"/>
			<path id="XMLID_1302_" style="fill:#5BA0F5;" d="M335.132,113.6c0,2.31,0.936,4.401,2.45,5.915
				c1.514,1.514,3.605,2.45,5.915,2.45c2.31,0,4.401-0.936,5.915-2.45c1.514-1.514,2.45-3.605,2.45-5.915s-0.936-4.401-2.45-5.915
				c-1.514-1.514-3.605-2.45-5.915-2.45c-2.31,0-4.401,0.936-5.915,2.45C336.069,109.199,335.132,111.29,335.132,113.6z"/>
			<path id="XMLID_1436_" style="fill:#6F4232;" d="M219,311.71v98.815v98.815c-3.61-0.52-7.195-1.117-10.753-1.79
				s-7.088-1.42-10.588-2.24c-4.005-0.93-7.972-1.955-11.901-3.073s-7.819-2.328-11.669-3.628c-5.925-2-11.75-4.21-17.469-6.621
				s-11.331-5.024-16.831-7.829v-56.61v-56.61c0.92-1.69,1.885-3.355,2.891-4.994s2.054-3.251,3.139-4.836
				c1.105-1.62,2.25-3.21,3.434-4.769s2.406-3.086,3.666-4.581c0.21-0.25,0.423-0.5,0.636-0.75s0.429-0.5,0.644-0.75
				c0.345-0.4,0.695-0.795,1.049-1.188s0.711-0.783,1.071-1.173c4.03-4.38,8.392-8.445,13.052-12.154s9.617-7.061,14.837-10.016
				v-0.005v-0.005c0.07-0.035,0.14-0.075,0.211-0.116s0.144-0.084,0.219-0.124c2.09-1.17,4.223-2.275,6.394-3.314
				s4.381-2.011,6.626-2.916c0.08-0.03,0.158-0.062,0.235-0.095s0.155-0.065,0.235-0.095c0.235-0.095,0.47-0.188,0.706-0.279
				s0.474-0.181,0.714-0.271c0.155-0.06,0.31-0.12,0.465-0.18s0.31-0.12,0.465-0.18c0.08-0.03,0.163-0.06,0.246-0.09
				s0.169-0.06,0.254-0.09c0.31-0.115,0.62-0.227,0.931-0.339s0.624-0.221,0.939-0.331l2.14-0.74l2.14-0.74l0.275-0.095l0.275-0.095
				h0.005h0.005c0,0,0.003,0,0.005-0.001s0.005-0.004,0.005-0.009l2.125-0.73l2.125-0.73l2.59-0.9l2.59-0.9l0.635-0.22l0.635-0.22
				l0.3-0.105L219,311.71z"/>
			<path id="XMLID_1418_" style="fill:#E9B12D;" d="M219,311.71v98.815v98.815c-3.61-0.52-7.195-1.117-10.753-1.79
				s-7.088-1.42-10.588-2.24v-93.03v-93.03c0.08-0.03,0.158-0.062,0.235-0.095s0.155-0.065,0.235-0.095
				c0.005,0,0.01-0.003,0.015-0.004s0.01-0.001,0.015,0.004c0.23-0.095,0.46-0.188,0.691-0.279s0.464-0.181,0.699-0.271
				c0.155-0.06,0.31-0.12,0.465-0.18s0.31-0.12,0.465-0.18c0.08-0.03,0.163-0.06,0.246-0.089s0.169-0.056,0.254-0.081v-0.005v-0.005
				c0.31-0.115,0.62-0.227,0.931-0.339s0.624-0.221,0.939-0.331l2.14-0.74l2.14-0.74l0.275-0.095l0.275-0.095h0.005h0.005
				c0,0,0.003,0,0.005-0.001s0.005-0.004,0.005-0.009l2.125-0.73l2.125-0.73l2.59-0.9l2.59-0.9l0.635-0.22l0.635-0.22l0.3-0.105
				L219,311.71z"/>
			<path id="XMLID_1395_" style="fill:#6F4232;" d="M368.78,380.64v52.615v52.615c-9.735,4.79-19.82,8.977-30.205,12.515
				s-21.07,6.425-32.005,8.615c-2.8,0.565-5.618,1.082-8.451,1.551s-5.684,0.889-8.549,1.259v-98.34v-98.34l0.61,0.275l0.61,0.275
				l1.65,0.75l1.65,0.75l3.035,1.025l3.035,1.025c0.105,0.035,0.21,0.07,0.315,0.106c0.105,0.036,0.21,0.074,0.315,0.114
				c0.125,0.04,0.247,0.083,0.369,0.126s0.241,0.089,0.361,0.134c0.415,0.145,0.83,0.293,1.244,0.443
				c0.414,0.15,0.826,0.302,1.236,0.457c0.025,0.005,0.048,0.013,0.069,0.021s0.041,0.019,0.061,0.029
				c0.365,0.135,0.728,0.273,1.089,0.413s0.721,0.283,1.081,0.428c0.045,0.02,0.09,0.038,0.135,0.055s0.09,0.035,0.135,0.055
				c0.215,0.085,0.43,0.173,0.645,0.261s0.43,0.179,0.645,0.269c0.625,0.265,1.25,0.535,1.874,0.811s1.246,0.559,1.866,0.849
				c0.31,0.145,0.617,0.29,0.924,0.436s0.611,0.294,0.916,0.444c0.515,0.245,1.028,0.495,1.538,0.751s1.018,0.519,1.523,0.789
				c0.195,0.1,0.388,0.2,0.579,0.3s0.381,0.2,0.571,0.3c0.795,0.43,1.585,0.87,2.37,1.319s1.565,0.906,2.34,1.371
				c1.85,1.12,3.665,2.287,5.443,3.502s3.518,2.478,5.217,3.788c0.425,0.325,0.848,0.655,1.268,0.987s0.837,0.668,1.253,1.003
				c3.275,2.665,6.395,5.508,9.351,8.512s5.749,6.172,8.369,9.488c0.49,0.61,0.972,1.227,1.447,1.851s0.942,1.254,1.402,1.889
				c1.58,2.18,3.093,4.418,4.53,6.709s2.8,4.636,4.08,7.031c0.73,1.365,1.435,2.745,2.113,4.14S368.16,379.215,368.78,380.64z"/>
			<path id="XMLID_1360_" style="fill:#E9B12D;" d="M306.57,319.61v93.695V507c-2.8,0.565-5.618,1.082-8.451,1.551
				s-5.684,0.889-8.549,1.259v-98.34v-98.34l0.61,0.275l0.61,0.275l1.65,0.75l1.65,0.75l3.035,1.025l3.035,1.025
				c0.105,0.035,0.21,0.07,0.315,0.106c0.105,0.036,0.21,0.074,0.315,0.114c0.125,0.04,0.247,0.083,0.369,0.126
				s0.241,0.089,0.361,0.134c0.415,0.145,0.83,0.293,1.244,0.443c0.414,0.15,0.826,0.302,1.236,0.457
				c0.025,0.005,0.048,0.013,0.069,0.021s0.041,0.019,0.061,0.029c0.365,0.135,0.728,0.273,1.089,0.413s0.721,0.283,1.081,0.428
				c0.045,0.02,0.09,0.038,0.135,0.055S306.525,319.59,306.57,319.61z"/>
			<g id="XMLID_1295_">
				<path id="XMLID_1296_" style="fill:#FBDBC4;" d="M300.792,317.447v12.725v12.725c0,12.91-5.253,24.617-13.733,33.098
					c-8.48,8.48-20.188,13.733-33.098,13.733s-24.618-5.253-33.098-13.733c-8.48-8.48-13.733-20.188-13.733-33.098v-13.54v-13.54
					l0.275-0.095l0.275-0.095h0.005h0.005c0,0,0.003,0,0.005-0.001s0.005-0.004,0.005-0.009l2.125-0.73l2.125-0.73l2.59-0.9
					l2.59-0.9v15.27v15.27c0,10.155,4.13,19.362,10.799,26.031c6.669,6.669,15.876,10.799,26.031,10.799s19.363-4.13,26.031-10.799
					c6.669-6.669,10.799-15.876,10.799-26.031v-14.61v-14.61l1.65,0.75l1.65,0.75l3.035,1.025l3.035,1.025
					c0.105,0.035,0.21,0.07,0.315,0.106C300.582,317.369,300.687,317.407,300.792,317.447z"/>
			</g>
			<path id="XMLID_1294_" style="fill:#D74545;" d="M266.629,401.727c0,4.694-1.418,8.944-3.71,12.021s-5.459,4.979-8.957,4.979
				s-6.664-1.903-8.957-4.979s-3.71-7.326-3.71-12.021s1.418-8.944,3.71-12.021c2.292-3.076,5.459-4.979,8.957-4.979
				s6.664,1.903,8.957,4.979C265.211,392.782,266.629,397.032,266.629,401.727z"/>
			<path id="XMLID_1292_" style="fill:#DB574B;" d="M168.094,141.727l37.726,20.886l37.726,20.886
				c3.502,1.939,7.378,2.914,11.257,2.924s7.76-0.944,11.273-2.863l38.271-20.917l38.271-20.917h-87.262H168.094z"/>
			<path style="fill:#734343;" d="M310.24,171.486c-0.589,0-1.186-0.148-1.733-0.461c-5.048-2.885-10.479-3.762-16.149-2.609
				c-4.157,0.846-6.898,2.521-6.926,2.538c-1.641,1.013-3.795,0.517-4.816-1.117c-1.021-1.634-0.537-3.781,1.092-4.81
				c0.151-0.096,3.772-2.355,9.256-3.47c7.272-1.481,14.544-0.308,21.017,3.391c1.679,0.959,2.262,3.097,1.303,4.775
				C312.636,170.853,311.455,171.486,310.24,171.486z"/>
			<path style="fill:#734343;" d="M224.999,171.486c-0.589,0-1.186-0.148-1.733-0.461c-5.048-2.885-10.479-3.762-16.149-2.609
				c-4.171,0.849-6.885,2.513-6.911,2.529c-1.634,1.032-3.795,0.545-4.828-1.09c-1.032-1.634-0.545-3.796,1.09-4.828
				c0.151-0.096,3.771-2.355,9.255-3.471c7.277-1.479,14.546-0.307,21.017,3.391c1.679,0.959,2.262,3.097,1.303,4.775
				C227.395,170.853,226.214,171.486,224.999,171.486z"/>
			<path style="fill:#804A48;" d="M191.352,157.274c-1.229,0-2.42-0.648-3.061-1.797c-0.94-1.689-0.334-3.82,1.354-4.761
				c0.245-0.137,6.114-3.372,14.485-5c11.265-2.193,21.758-0.423,30.345,5.117c1.624,1.048,2.092,3.214,1.044,4.838
				c-1.049,1.625-3.215,2.091-4.839,1.043c-7.137-4.604-15.618-5.992-25.214-4.127c-7.286,1.417-12.364,4.216-12.415,4.244
				C192.513,157.131,191.928,157.274,191.352,157.274z"/>
			<path style="fill:#804A48;" d="M317.815,157.274c-0.65,0-1.308-0.181-1.895-0.56c-7.138-4.604-15.62-5.993-25.213-4.127
				c-7.22,1.404-12.369,4.219-12.42,4.247c-1.691,0.932-3.82,0.323-4.756-1.364c-0.937-1.688-0.332-3.814,1.354-4.754
				c0.246-0.137,6.114-3.372,14.486-5c11.266-2.193,21.758-0.423,30.344,5.117c1.624,1.048,2.092,3.214,1.044,4.838
				C320.09,156.708,318.964,157.274,317.815,157.274z"/>
			<path style="fill:#AB5954;" d="M271.342,230.727h-33.096c-1.933,0-3.5-1.567-3.5-3.5s1.567-3.5,3.5-3.5h33.096
				c1.933,0,3.5,1.567,3.5,3.5S273.274,230.727,271.342,230.727z"/>
			<path style="fill:#AB5954;" d="M266.402,241.727h-23.216c-1.933,0-3.5-1.567-3.5-3.5s1.567-3.5,3.5-3.5h23.216
				c1.933,0,3.5,1.567,3.5,3.5S268.335,241.727,266.402,241.727z"/>
			<g id="XMLID_1283_">
				<path id="XMLID_1285_" style="fill:#FFFFFF;" d="M362.609,222.813c0,2.941-0.313,5.801-0.847,8.541
					c-0.534,2.74-1.288,5.359-2.169,7.818c-1.442,4.003-3.226,7.581-4.958,10.567c-1.732,2.986-3.412,5.379-4.648,7.012
					c-0.498,0.656-1.238,0.983-1.977,0.983s-1.479-0.328-1.977-0.983c-1.265-1.672-2.998-4.142-4.774-7.23
					c-1.776-3.088-3.595-6.794-5.035-10.938c-0.829-2.383-1.533-4.913-2.029-7.552s-0.784-5.39-0.784-8.216
					c0-10.048,1.634-19.145,4.276-25.731s6.29-10.659,10.319-10.659c4.032,0,7.683,4.073,10.325,10.659
					C360.974,203.668,362.609,212.765,362.609,222.813z"/>
				<path id="XMLID_1284_" style="fill:#6F4232;" d="M359.593,239.172c-1.442,4.003-3.226,7.581-4.958,10.567
					c-1.732,2.986-3.412,5.379-4.648,7.012c-0.498,0.656-1.238,0.983-1.977,0.983s-1.479-0.328-1.977-0.983
					c-1.265-1.672-2.998-4.142-4.774-7.23c-1.776-3.088-3.595-6.794-5.035-10.938l5.891-2.911l5.891-2.911l5.793,3.206
					L359.593,239.172z"/>
			</g>
			<g id="XMLID_1280_">
				<path id="XMLID_1282_" style="fill:#FFFFFF;" d="M175.796,222.813c0,2.941-0.313,5.801-0.847,8.541
					c-0.534,2.74-1.288,5.359-2.169,7.818c-1.442,4.003-3.226,7.581-4.958,10.567c-1.732,2.986-3.412,5.379-4.648,7.012
					c-0.498,0.656-1.238,0.983-1.977,0.983c-0.739,0-1.479-0.328-1.977-0.983c-1.265-1.672-2.998-4.142-4.774-7.23
					c-1.776-3.088-3.595-6.794-5.035-10.938c-0.829-2.383-1.533-4.913-2.028-7.552s-0.784-5.39-0.784-8.216
					c0-10.048,1.634-19.145,4.276-25.731s6.29-10.659,10.319-10.659c4.032,0,7.683,4.073,10.325,10.659
					C174.162,203.668,175.796,212.765,175.796,222.813z"/>
				<path id="XMLID_1281_" style="fill:#6F4232;" d="M172.78,239.172c-1.442,4.003-3.226,7.581-4.958,10.567
					c-1.732,2.986-3.412,5.379-4.648,7.012c-0.498,0.656-1.238,0.983-1.977,0.983c-0.739,0-1.479-0.328-1.977-0.983
					c-1.265-1.672-2.998-4.142-4.774-7.23c-1.776-3.088-3.595-6.794-5.035-10.938l5.891-2.911l5.891-2.911l5.793,3.206
					L172.78,239.172z"/>
			</g>
			<path id="XMLID_1279_" style="fill:#B45D58;" d="M166.296,170.88c-1.933,0-3.683,0.784-4.95,2.05
				c-1.267,1.267-2.05,3.017-2.05,4.95s0.783,3.683,2.05,4.95s3.017,2.05,4.95,2.05v-7V170.88z"/>
			<path id="XMLID_1278_" style="fill:#B45D58;" d="M343.166,184.88c1.933,0,3.683-0.783,4.95-2.05s2.05-3.017,2.05-4.95
				s-0.784-3.683-2.05-4.95c-1.267-1.267-3.017-2.05-4.95-2.05v7V184.88z"/>
		</g>
	</g>
</g>
</svg>
